# xmcd
# 
# Track frame offsets:
#     150
#     12495
#     26812
#     41047
#     52939
#     65977
#     79697
#     92800
#     104979
#     118665
#     129377
#     141637
#     154475
#     167905
#     177690
# 
# Disc length: 2534
# 
# Revision: 1
# Processed by: cddbd v1.5.2PL0 Copyright (c) Steve Scherf et al.
# Submitted via: BonkEnc v1.0.15
# 
DISCID=e909e40f
DTITLE=Various Artist - The Secret Of Little Walter
DYEAR=0
DGENRE=Blues
TTITLE0=Louis Jordan - Choo-Choo Ch Boogie
TTITLE1=Joe Liggins - The Honeydripper
TTITLE2=Joe Liggins - Tanya
TTITLE3=Paul Williams - Juice Bug Boogie
TTITLE4=Waiter Brown - Confessin' The Blues
TTITLE5=Jack McVea (Vocal by Rabon Tarrant) - Blues With A Feelin'
TTITLE6=PeeWee Crayton - Blues After Hours
TTITLE7=King Curtis - Fever
TTITLE8=Guitar Slim - The Things That I Used To Do
TTITLE9=Junior Wells - Cha Cha Cha In Blue
TTITLE10=Billy Boy Arnold - I Wish You Would
TTITLE11=Billy Boy Arnold - Prisoner'sPlea
TTITLE12=Buster Brown - Fannie Mae
TTITLE13=Rosco Gordon - Just A Little Bit
TTITLE14=Jimmy Reed - Honest I Do
EXTD=Blues and Soul Records Vol.36
EXTT0=
EXTT1=
EXTT2=
EXTT3=
EXTT4=
EXTT5=
EXTT6=
EXTT7=
EXTT8=
EXTT9=
EXTT10=
EXTT11=
EXTT12=
EXTT13=
EXTT14=
PLAYORDER=
